<?xml version="1.0" encoding="UTF-8" standalone="no"?>
<svg
   id="Color"
   viewBox="0 0 315.58372 60.388556"
   width="315.58371"
   height="60.388557"
   version="1.1"
   sodipodi:docname="bdc-logo.svg"
   inkscape:version="1.2.2 (b0a8486541, 2022-12-01)"
   xmlns:inkscape="http://www.inkscape.org/namespaces/inkscape"
   xmlns:sodipodi="http://sodipodi.sourceforge.net/DTD/sodipodi-0.dtd"
   xmlns="http://www.w3.org/2000/svg"
   xmlns:svg="http://www.w3.org/2000/svg">
  <sodipodi:namedview
     id="namedview190"
     pagecolor="#ffffff"
     bordercolor="#000000"
     borderopacity="0.25"
     inkscape:showpageshadow="2"
     inkscape:pageopacity="0.0"
     inkscape:pagecheckerboard="0"
     inkscape:deskcolor="#d1d1d1"
     showgrid="false"
     inkscape:zoom="1.4204863"
     inkscape:cx="-73.566358"
     inkscape:cy="58.430696"
     inkscape:window-width="1443"
     inkscape:window-height="455"
     inkscape:window-x="290"
     inkscape:window-y="1441"
     inkscape:window-maximized="0"
     inkscape:current-layer="Color" />
  <defs
     id="defs150">
    <style
       id="style148">.cls-1{fill:#616365;}.cls-2{fill:#c11f3e;}</style>
  </defs>
  <path
     class="cls-1"
     d="m 169.77,9.668559 a 9.23,9.23 0 0 1 -0.91,4.26 8.52,8.52 0 0 1 -2.37,2.94 9.88,9.88 0 0 1 -3.38,1.7 13.73,13.73 0 0 1 -3.82,0.55 h -7 V 0.33855897 h 6.79 a 16.76,16.76 0 0 1 3.93,0.46 9.83,9.83 0 0 1 3.45,1.54000003 8,8 0 0 1 2.44,2.88 9.77,9.77 0 0 1 0.92,4.45 m -4.72,0 a 6,6 0 0 0 -0.51,-2.64 4.64,4.64 0 0 0 -1.38,-1.67 5.51,5.51 0 0 0 -2,-0.88 9.45,9.45 0 0 0 -2.26,-0.27 h -2.26 v 11 h 2.15 a 9.63,9.63 0 0 0 2.35,-0.28 5.58,5.58 0 0 0 2,-0.91 4.66,4.66 0 0 0 1.38,-1.7 6,6 0 0 0 0.51,-2.63"
     id="path152" />
  <path
     class="cls-1"
     d="m 172.35,7.708559 a 7.57,7.57 0 0 1 2.71,-1.67 9.37,9.37 0 0 1 3.17,-0.56 8.59,8.59 0 0 1 2.83,0.41 4.24,4.24 0 0 1 1.87,1.28 5.64,5.64 0 0 1 1.05,2.17 13,13 0 0 1 0.33,3.12 v 6.66 h -4 v -1.41 h -0.08 a 3.24,3.24 0 0 1 -1.53,1.27 5.39,5.39 0 0 1 -2.21,0.45 6.77,6.77 0 0 1 -1.64,-0.21 4.77,4.77 0 0 1 -1.56,-0.69 3.71,3.71 0 0 1 -1.15,-1.27 4,4 0 0 1 -0.45,-2 3.33,3.33 0 0 1 0.78,-2.31 5.13,5.13 0 0 1 2.02,-1.34 10.69,10.69 0 0 1 2.74,-0.64 27.17,27.17 0 0 1 3,-0.16 v -0.2 a 1.62,1.62 0 0 0 -0.69,-1.45 3,3 0 0 0 -1.7,-0.46 4.14,4.14 0 0 0 -1.79,0.4 5.4,5.4 0 0 0 -1.47,0.95 z m 8,5.65 h -0.56 a 13.88,13.88 0 0 0 -1.44,0.07 5.88,5.88 0 0 0 -1.3,0.25 2.28,2.28 0 0 0 -0.94,0.54 1.26,1.26 0 0 0 -0.38,0.94 1.12,1.12 0 0 0 0.18,0.64 1.36,1.36 0 0 0 0.43,0.43 1.92,1.92 0 0 0 0.61,0.22 3.11,3.11 0 0 0 0.67,0.07 2.68,2.68 0 0 0 2,-0.73 2.74,2.74 0 0 0 0.71,-2 z"
     id="path154" />
  <path
     class="cls-1"
     d="m 192,9.138559 v 5.06 a 2.27,2.27 0 0 0 0.36,1.4 1.51,1.51 0 0 0 1.28,0.47 4.18,4.18 0 0 0 0.68,-0.06 2.17,2.17 0 0 0 0.6,-0.16 v 3.19 a 9.51,9.51 0 0 1 -1.14,0.28 9.17,9.17 0 0 1 -1.38,0.11 6.52,6.52 0 0 1 -2.23,-0.33 3.38,3.38 0 0 1 -1.44,-1 3.65,3.65 0 0 1 -0.79,-1.48 7.23,7.23 0 0 1 -0.24,-1.93 v -5.55 h -2.12 v -3.23 h 2.1 v -3.48 h 4.27 v 3.48 h 3.1 v 3.23 z"
     id="path156" />
  <path
     class="cls-1"
     d="m 196.96,7.708559 a 7.52,7.52 0 0 1 2.72,-1.67 9.32,9.32 0 0 1 3.16,-0.56 8.59,8.59 0 0 1 2.83,0.41 4.24,4.24 0 0 1 1.87,1.28 5.37,5.37 0 0 1 1,2.17 13,13 0 0 1 0.33,3.12 v 6.66 h -4 v -1.41 h -0.08 a 3.24,3.24 0 0 1 -1.53,1.27 5.39,5.39 0 0 1 -2.21,0.45 6.77,6.77 0 0 1 -1.64,-0.21 4.63,4.63 0 0 1 -1.55,-0.69 3.74,3.74 0 0 1 -1.16,-1.27 4,4 0 0 1 -0.45,-2 3.33,3.33 0 0 1 0.78,-2.31 5.21,5.21 0 0 1 2,-1.35 10.79,10.79 0 0 1 2.74,-0.64 27.17,27.17 0 0 1 2.95,-0.16 v -0.19 a 1.62,1.62 0 0 0 -0.69,-1.45 3,3 0 0 0 -1.7,-0.46 4.14,4.14 0 0 0 -1.79,0.4 5.73,5.73 0 0 0 -1.47,0.95 z m 8,5.65 h -0.56 a 14,14 0 0 0 -1.44,0.07 5.88,5.88 0 0 0 -1.3,0.25 2.28,2.28 0 0 0 -0.94,0.54 1.26,1.26 0 0 0 -0.38,0.94 1.12,1.12 0 0 0 0.18,0.64 1.29,1.29 0 0 0 0.44,0.43 1.76,1.76 0 0 0 0.61,0.22 3,3 0 0 0 0.66,0.07 2.48,2.48 0 0 0 2.73,-2.71 z"
     id="path158" />
  <path
     class="cls-1"
     d="m 113.6,0.33855897 h 6.47 a 9.57,9.57 0 0 1 2.12,0.24 5.66,5.66 0 0 1 1.9,0.79000003 4.41,4.41 0 0 1 1.4,1.46 4.52,4.52 0 0 1 0.52,2.26 3.9,3.9 0 0 1 -0.9,2.62 4.6,4.6 0 0 1 -2.39,1.46 v 0.05 a 5.37,5.37 0 0 1 1.67,0.47 4.51,4.51 0 0 1 1.33,0.94 4.24,4.24 0 0 1 0.77,1.38 5,5 0 0 1 0.3,1.78 4.58,4.58 0 0 1 -2.07,4 6.83,6.83 0 0 1 -2.24,1 10.55,10.55 0 0 1 -2.74,0.34 h -6.18 z m 2.62,7.93000003 h 3.42 a 5.94,5.94 0 0 0 1.42,-0.17 3.54,3.54 0 0 0 1.18,-0.53 2.6,2.6 0 0 0 0.8,-0.91 2.79,2.79 0 0 0 0.29,-1.31 2.3,2.3 0 0 0 -1.11,-2.16 6,6 0 0 0 -3,-0.65 h -3 z m 0,8.62 h 3.27 a 9.4,9.4 0 0 0 1.66,-0.15 4.58,4.58 0 0 0 1.51,-0.52 3,3 0 0 0 1.09,-1 2.83,2.83 0 0 0 0.41,-1.58 2.66,2.66 0 0 0 -1.14,-2.41 6,6 0 0 0 -3.29,-0.74 h -3.53 z"
     id="path160" />
  <path
     class="cls-1"
     d="m 133.41,2.008559 a 1.47,1.47 0 0 1 -0.49,1.14 1.65,1.65 0 0 1 -1.17,0.45 1.61,1.61 0 0 1 -1.16,-0.46 1.62,1.62 0 0 1 0,-2.28000003 1.68,1.68 0 0 1 2.33,0 1.51,1.51 0 0 1 0.49,1.15000003 m -0.4,17.11 h -2.52 v -12.58 h 2.49 z"
     id="path162" />
  <path
     class="cls-1"
     d="m 150.09,12.798559 a 6.67,6.67 0 0 1 -0.52,2.68 6.21,6.21 0 0 1 -1.43,2.13 6.55,6.55 0 0 1 -2.16,1.38 7.57,7.57 0 0 1 -5.36,0 6.36,6.36 0 0 1 -2.13,-1.38 6.18,6.18 0 0 1 -1.42,-2.11 6.67,6.67 0 0 1 -0.52,-2.68 6.58,6.58 0 0 1 0.52,-2.66 6.06,6.06 0 0 1 1.42,-2.1 6.34,6.34 0 0 1 2.14,-1.37 7.57,7.57 0 0 1 5.36,0 6.53,6.53 0 0 1 2.16,1.37 6.09,6.09 0 0 1 1.43,2.08 6.58,6.58 0 0 1 0.52,2.66 m -2.6,0 a 5.21,5.21 0 0 0 -0.28,-1.72 4.08,4.08 0 0 0 -0.81,-1.44 3.65,3.65 0 0 0 -1.32,-1 4.09,4.09 0 0 0 -1.79,-0.37 4.14,4.14 0 0 0 -1.8,0.37 3.7,3.7 0 0 0 -1.31,1 4.26,4.26 0 0 0 -0.82,1.44 5.61,5.61 0 0 0 0,3.44 4.51,4.51 0 0 0 0.82,1.45 3.87,3.87 0 0 0 1.31,1 4.29,4.29 0 0 0 1.8,0.37 4.24,4.24 0 0 0 1.79,-0.37 3.81,3.81 0 0 0 1.32,-1 4.3,4.3 0 0 0 0.81,-1.45 5.21,5.21 0 0 0 0.28,-1.72"
     id="path164" />
  <g
     id="xrushB.tif"
     transform="translate(-21.51,-17.391441)">
    <path
       class="cls-1"
       d="m 333.52,77.43 h -0.37 -0.23 a 3.59,3.59 0 0 1 -0.86,-0.2 3.76,3.76 0 0 1 -2.45,-3.26 3.67,3.67 0 0 1 0.09,-1.14 3.76,3.76 0 0 1 3.45,-2.87 3.6,3.6 0 0 1 1.18,0.13 3.68,3.68 0 0 1 2.25,1.72 3.59,3.59 0 0 1 0.51,1.59 c 0,0 0,0.09 0,0.14 v 0.34 a 2.11,2.11 0 0 1 0,0.25 3.5,3.5 0 0 1 -0.23,0.9 3.68,3.68 0 0 1 -1.86,1.97 3.76,3.76 0 0 1 -1.38,0.39 z m -3.16,-3.75 a 3,3 0 1 0 3,-3 3,3 0 0 0 -3,3 z"
       id="path166" />
    <path
       class="cls-1"
       d="m 334,73.72 a 0.8,0.8 0 0 1 0.4,0.25 1.51,1.51 0 0 1 0.18,0.26 l 0.32,0.61 0.33,0.68 v 0 h -1 c 0,0 0,0 0,0 -0.17,-0.33 -0.33,-0.66 -0.49,-1 a 1.14,1.14 0 0 0 -0.23,-0.31 0.49,0.49 0 0 0 -0.32,-0.14 h -0.4 v 1.47 h -1 v -3.91 h 1.62 a 2.27,2.27 0 0 1 0.78,0.12 1,1 0 0 1 0.46,0.32 0.86,0.86 0 0 1 0.16,0.41 1.36,1.36 0 0 1 0,0.6 0.88,0.88 0 0 1 -0.53,0.57 z m -1.28,-0.35 h 0.51 0.16 a 0.39,0.39 0 0 0 0.32,-0.28 0.72,0.72 0 0 0 0,-0.41 0.31,0.31 0 0 0 -0.23,-0.24 0.8,0.8 0 0 0 -0.21,0 h -0.55 z"
       id="path168" />
  </g>
  <polygon
     class="cls-2"
     points="180.37,55 178.26,61.66 182.48,61.66 "
     id="polygon171"
     transform="translate(-21.51,-17.391441)" />
  <path
     class="cls-2"
     d="m 113.6,23.298559 v 36.74 h 186.26 l 15,-18.37 -15,-18.37 z m 23.64,30.12 c -5.81,0 -10.32,-4.45 -10.32,-11.52 v -0.39 c 0,-7 4.58,-11.59 10.55,-11.59 a 9.7,9.7 0 0 1 7.85,3.57 l -3.76,4 a 5.11,5.11 0 0 0 -4,-2.14 c -2.67,0 -4.65,2.37 -4.65,6.23 v 0.13 c 0,4.06 2,6.3 4.65,6.3 a 5.27,5.27 0 0 0 4.15,-2.24 l 3.7,3.76 a 10,10 0 0 1 -8.18,3.9 m 26.52,-0.39 -1.33,-4.09 h -7.13 l -1.3,4.09 h -6 l 8,-22.85 h 5.91 l 8,22.85 z m 23.64,-17.43 h -5.62 v 17.42 h -5.84 v -17.42 h -5.62 v -5.3 h 17.08 z m 16.22,17.46 -1.33,-4.09 h -7.14 l -1.3,4.09 h -6 l 8,-22.85 h 5.91 l 8,22.85 z m 24.77,0 h -14.77 v -22.76 h 5.88 v 17.46 h 8.93 z m 12.23,-8.57 v 8.57 h -5.84 v -8.5 l -7.28,-14.26 h 6.46 l 3.79,8.21 3.83,-8.21 h 6.36 z m 25.93,1.75 c 0,4.42 -3.4,7.14 -8.27,7.14 a 13.79,13.79 0 0 1 -9.25,-3.34 l 3.11,-4.25 a 9.93,9.93 0 0 0 6.17,2.56 c 1.56,0 2.37,-0.68 2.37,-1.65 v 0 c 0,-0.91 -0.68,-1.46 -3.34,-2.41 -4.29,-1.46 -7.31,-3 -7.31,-7.14 v -0.09 c 0,-4.13 3.15,-7 8.12,-7 a 12.44,12.44 0 0 1 8.11,2.75 l -2.95,4.35 a 9,9 0 0 0 -5.29,-2.07 c -1.33,0 -2.08,0.64 -2.08,1.49 v 0 c 0,1 0.71,1.53 3.6,2.6 4.32,1.39 7,3.15 7,7 z m 20,-10.64 h -5.62 v 17.42 h -5.84 v -17.42 h -5.59 v -5.3 h 17.08 z"
     id="path173" />
  <polygon
     class="cls-2"
     points="220.22,55 218.11,61.66 222.33,61.66 "
     id="polygon175"
     transform="translate(-21.51,-17.391441)" />
  <path
     class="cls-2"
     d="m 113.6,23.298559 v 36.74 h 186.26 l 15,-18.37 -15,-18.37 z m 23.64,30.12 c -5.81,0 -10.32,-4.45 -10.32,-11.52 v -0.39 c 0,-7 4.58,-11.59 10.55,-11.59 a 9.7,9.7 0 0 1 7.85,3.57 l -3.76,4 a 5.11,5.11 0 0 0 -4,-2.14 c -2.67,0 -4.65,2.37 -4.65,6.23 v 0.13 c 0,4.06 2,6.3 4.65,6.3 a 5.27,5.27 0 0 0 4.15,-2.24 l 3.7,3.76 a 10,10 0 0 1 -8.18,3.9 m 26.52,-0.39 -1.33,-4.09 h -7.13 l -1.3,4.09 h -6 l 8,-22.85 h 5.91 l 8,22.85 z m 23.64,-17.43 h -5.62 v 17.42 h -5.84 v -17.42 h -5.62 v -5.3 h 17.08 z m 16.22,17.46 -1.33,-4.09 h -7.14 l -1.3,4.09 h -6 l 8,-22.85 h 5.91 l 8,22.85 z m 24.77,0 h -14.77 v -22.76 h 5.88 v 17.46 h 8.93 z m 12.23,-8.57 v 8.57 h -5.84 v -8.5 l -7.28,-14.26 h 6.46 l 3.79,8.21 3.83,-8.21 h 6.36 z m 25.93,1.75 c 0,4.42 -3.4,7.14 -8.27,7.14 a 13.79,13.79 0 0 1 -9.25,-3.34 l 3.11,-4.25 a 9.93,9.93 0 0 0 6.17,2.56 c 1.56,0 2.37,-0.68 2.37,-1.65 v 0 c 0,-0.91 -0.68,-1.46 -3.34,-2.41 -4.29,-1.46 -7.31,-3 -7.31,-7.14 v -0.09 c 0,-4.13 3.15,-7 8.12,-7 a 12.44,12.44 0 0 1 8.11,2.75 l -2.95,4.35 a 9,9 0 0 0 -5.29,-2.07 c -1.33,0 -2.08,0.64 -2.08,1.49 v 0 c 0,1 0.71,1.53 3.6,2.6 4.32,1.39 7,3.15 7,7 z m 20,-10.64 h -5.62 v 17.42 h -5.84 v -17.42 h -5.59 v -5.3 h 17.08 z"
     id="path177" />
  <path
     class="cls-1"
     d="m 72.12,57.608559 a 1.14,1.14 0 1 1 2.27,0 z m 3.25,0.63 a 2.14,2.14 0 1 0 -4.22,-0.24 2.1,2.1 0 0 0 2.16,2.32 2,2 0 0 0 2,-1.5 h -0.93 a 1,1 0 0 1 -1.07,0.73 1.18,1.18 0 0 1 -1.19,-1.31 z m -7.13,-1.73 h 0.73 v 2.61 c 0,0.73 0.2,1.12 1.22,1.12 0.21,0 0.42,0 0.63,0 v -0.75 a 1.89,1.89 0 0 1 -0.41,0 c -0.43,0 -0.47,-0.2 -0.47,-0.6 v -2.38 h 0.88 v -0.72 h -0.88 v -1.32 h -1 v 1.32 h -0.73 z m -0.43,-0.72 h -1 v 2.56 c 0,0.68 -0.28,1.2 -1.09,1.2 -0.53,0 -0.84,-0.28 -0.84,-1.06 v -2.7 h -1 v 2.82 c 0,1.15 0.49,1.73 1.64,1.73 a 1.48,1.48 0 0 0 1.32,-0.73 v 0 0.62 h 1 z m -7,0.72 h 0.73 v 2.61 c 0,0.73 0.21,1.12 1.22,1.12 0.21,0 0.42,0 0.63,0 v -0.75 a 1.89,1.89 0 0 1 -0.41,0 c -0.43,0 -0.47,-0.2 -0.47,-0.6 v -2.38 h 0.88 v -0.72 h -0.9 v -1.32 h -1 v 1.32 h -0.73 z m -1.43,-1.48 h 1 v -0.92 h -1 z m 0,5.17 h 1 v -4.41 h -1 z m -3.16,-3.69 h 0.73 v 2.61 c 0,0.73 0.21,1.12 1.22,1.12 0.21,0 0.42,0 0.63,0 v -0.75 a 1.89,1.89 0 0 1 -0.41,0 c -0.43,0 -0.47,-0.2 -0.47,-0.6 v -2.38 h 0.88 v -0.72 h -0.88 v -1.32 h -1 v 1.32 h -0.73 z m -4.07,2.27 c 0,1 0.84,1.54 2,1.54 0.91,0 2,-0.39 2,-1.43 0,-0.87 -0.71,-1.13 -1.42,-1.29 -0.71,-0.16 -1.43,-0.23 -1.43,-0.71 0,-0.48 0.52,-0.45 0.8,-0.45 0.28,0 0.81,0.12 0.89,0.59 h 1 c -0.12,-1 -0.94,-1.36 -1.85,-1.36 -0.91,0 -1.84,0.3 -1.84,1.26 0,0.96 0.7,1.15 1.42,1.31 0.72,0.16 1.41,0.22 1.44,0.73 0.03,0.51 -0.61,0.58 -1,0.58 -0.39,0 -0.95,-0.2 -1,-0.77 z m -4.5,1.42 h 1 v -2.59 a 1.07,1.07 0 0 1 1.06,-1.16 c 0.57,0 0.85,0.29 0.87,1 v 2.77 h 1 v -3 a 1.4,1.4 0 0 0 -1.56,-1.5 1.6,1.6 0 0 0 -1.38,0.78 v 0 -0.65 h -0.92 z m -2.08,0 h 1.06 v -6.09 h -1.06 z m -3.27,-6.09 h -1 v 2.25 0 a 1.7,1.7 0 0 0 -1.47,-0.69 c -1,0 -1.91,0.7 -1.91,2.29 0,1.33 0.67,2.36 2.06,2.36 a 1.48,1.48 0 0 0 1.39,-0.71 v 0 0.6 h 0.91 z m -3.39,3.93 c 0,-0.79 0.32,-1.6 1.24,-1.6 0.75,0 1.22,0.58 1.22,1.55 0,0.77 -0.37,1.56 -1.24,1.56 -0.87,0 -1.22,-0.75 -1.22,-1.51 m -3.64,2.28 a 2.33,2.33 0 1 0 -2.23,-2.33 2.14,2.14 0 0 0 2.23,2.33 m 0,-0.77 c -0.87,0 -1.26,-0.79 -1.26,-1.56 0,-0.77 0.39,-1.55 1.26,-1.55 0.87,0 1.22,0.79 1.22,1.55 0,0.76 -0.38,1.56 -1.25,1.56 m -4.91,0.77 a 2.33,2.33 0 1 0 -2.22,-2.33 2.13,2.13 0 0 0 2.22,2.33 m 0,-0.77 c -0.87,0 -1.25,-0.79 -1.25,-1.56 0,-0.77 0.38,-1.55 1.25,-1.55 0.87,0 1.26,0.79 1.26,1.55 0,0.76 -0.38,1.56 -1.26,1.56 m -3.84,0.65 h 1 v -6.09 h -1 z m -4.7,-5.22 h 1.7 c 0.58,0 0.9,0.22 0.9,0.83 a 0.82,0.82 0 0 1 -0.9,0.85 h -1.7 z m -1.06,5.22 h 2.76 c 1.58,0 2.24,-0.74 2.24,-1.7 a 1.45,1.45 0 0 0 -1.14,-1.57 v 0 a 1.34,1.34 0 0 0 0.9,-1.32 c 0,-1 -0.71,-1.51 -1.8,-1.51 h -3 z m 1.06,-2.77 h 1.89 a 0.89,0.89 0 0 1 1,0.93 0.91,0.91 0 0 1 -1,1 h -1.89 z m -4.3,-3.32 h -1 v 2.25 0 a 1.7,1.7 0 0 0 -1.47,-0.69 c -1,0 -1.91,0.7 -1.91,2.29 0,1.33 0.67,2.36 2.06,2.36 a 1.48,1.48 0 0 0 1.32,-0.71 v 0 0.6 h 1 z m -3.4,3.93 c 0,-0.79 0.33,-1.6 1.24,-1.6 0.75,0 1.22,0.58 1.22,1.55 0,0.77 -0.37,1.56 -1.24,1.56 -0.87,0 -1.22,-0.75 -1.22,-1.51 m -5.5,2.16 h 1 v -2.59 a 1.08,1.08 0 0 1 1.07,-1.16 c 0.57,0 0.84,0.29 0.86,1 v 2.77 h 1 v -3 a 1.39,1.39 0 0 0 -1.56,-1.5 1.58,1.58 0 0 0 -1.37,0.78 v 0 -0.65 H 8.67 Z m -0.9,-3.25 c 0,-0.93 -0.9,-1.28 -1.76,-1.28 -0.86,0 -1.94,0.33 -2,1.46 h 1 c 0,-0.47 0.42,-0.69 1,-0.69 0.39,0 0.91,0.09 0.91,0.59 0,0.5 -0.62,0.5 -1.32,0.63 -0.7,0.13 -1.7,0.27 -1.7,1.37 a 1.35,1.35 0 0 0 1.51,1.29 2.29,2.29 0 0 0 1.53,-0.54 0.66,0.66 0 0 0 0.75,0.54 2.6,2.6 0 0 0 0.62,-0.11 v -0.68 a 1.24,1.24 0 0 1 -0.25,0 c -0.17,0 -0.23,-0.09 -0.23,-0.33 z m -1,1.76 c 0,0.62 -0.66,0.84 -1.09,0.84 -0.43,0 -0.89,-0.13 -0.89,-0.56 0,-0.43 0.37,-0.67 0.79,-0.74 a 3.21,3.21 0 0 0 1.19,-0.26 z"
     id="path179" />
  <path
     class="cls-1"
     d="m 77.88,51.118559 h 0.61 a 0.79,0.79 0 0 1 -0.55,0.83 v 0.52 a 1.37,1.37 0 0 0 1.15,-1.35 v -1.15 h -1.21 z m -0.91,-4.41 h -1 v 0.61 0 a 1.37,1.37 0 0 0 -1.3,-0.73 2,2 0 0 0 -2,2.21 c 0,1.26 0.58,2.32 2,2.32 a 1.51,1.51 0 0 0 1.32,-0.77 v 0 0.67 a 1,1 0 0 1 -1.14,1.13 c -0.49,0 -0.93,-0.1 -1.05,-0.65 h -1 c 0.09,1 1.09,1.37 2,1.37 1.38,0 2.16,-0.66 2.16,-2 z m -2.16,3.64 c -0.81,0 -1.16,-0.73 -1.16,-1.45 0,-0.72 0.3,-1.54 1.16,-1.54 0.86,0 1.19,0.7 1.19,1.46 0,0.76 -0.33,1.53 -1.19,1.53 m -6.66,0.77 h 1 v -2.6 a 1.08,1.08 0 0 1 1.07,-1.16 c 0.57,0 0.84,0.3 0.86,1 v 2.77 h 1 v -3 a 1.39,1.39 0 0 0 -1.59,-1.52 1.57,1.57 0 0 0 -1.37,0.79 v 0 -0.69 H 68.2 Z m -0.87,-4.41 h -1 v 2.56 c 0,0.68 -0.27,1.2 -1.08,1.2 -0.53,0 -0.85,-0.28 -0.85,-1 v -2.76 h -1 v 2.8 c 0,1.15 0.49,1.73 1.65,1.73 a 1.49,1.49 0 0 0 1.25,-0.73 v 0 0.61 h 1 z m -8.48,4.41 h 4.16 v -0.92 h -3.09 v -5.17 H 58.8 Z m -4.49,0 h 0.59 a 0.79,0.79 0 0 1 -0.56,0.83 v 0.52 a 1.36,1.36 0 0 0 1.15,-1.35 v -1.15 h -1.18 z m -3.21,-3.68 h 0.74 v 2.6 c 0,0.73 0.2,1.12 1.21,1.12 0.22,0 0.42,0 0.63,0 v -0.75 a 1.36,1.36 0 0 1 -0.4,0 c -0.44,0 -0.47,-0.21 -0.47,-0.61 v -2.36 h 0.87 v -0.73 h -0.87 v -1.32 h -1 v 1.32 h -0.74 z m -2.4,3.68 h 1 v -2.1 c 0,-1 0.53,-1.51 1.19,-1.51 a 2.84,2.84 0 0 1 0.42,0 v -0.9 a 2,2 0 0 0 -0.37,0 1.43,1.43 0 0 0 -1.28,1 v 0 -0.9 h -0.91 z m -0.9,-3.25 c 0,-0.93 -0.9,-1.28 -1.76,-1.28 -0.86,0 -1.94,0.34 -2,1.47 h 1 c 0,-0.48 0.43,-0.7 1,-0.7 0.57,0 0.92,0.09 0.92,0.6 0,0.51 -0.63,0.49 -1.32,0.62 -0.69,0.13 -1.7,0.27 -1.7,1.37 a 1.34,1.34 0 0 0 1.51,1.29 2.22,2.22 0 0 0 1.52,-0.54 c 0.08,0.4 0.36,0.54 0.76,0.54 a 2.52,2.52 0 0 0 0.61,-0.11 v -0.67 H 48.1 c -0.18,0 -0.23,-0.09 -0.23,-0.33 z m -1,1.77 c 0,0.61 -0.67,0.83 -1.09,0.83 -0.42,0 -0.9,-0.12 -0.9,-0.56 0,-0.44 0.37,-0.67 0.79,-0.73 a 3.48,3.48 0 0 0 1.2,-0.27 z m -6.55,-1.11 a 1.14,1.14 0 0 1 1.24,-1.17 1.16,1.16 0 0 1 1.11,1.17 z m 3.24,0.64 a 2.13,2.13 0 1 0 -4.21,-0.25 2.08,2.08 0 0 0 2.21,2.32 1.93,1.93 0 0 0 2,-1.5 h -0.92 a 1,1 0 0 1 -1.08,0.73 1.17,1.17 0 0 1 -1.18,-1.3 z m -9.89,2 h 1.09 v -2.79 h 2.8 v 2.74 h 1 v -6.09 h -1 v 2.42 h -2.8 v -2.42 h -1.06 z m -4.21,0 h 1 v -6.14 h -1 z m -0.9,-3.3 c 0,-0.93 -0.91,-1.28 -1.77,-1.28 -0.86,0 -1.93,0.34 -2,1.47 h 1 c 0,-0.48 0.43,-0.7 1,-0.7 0.57,0 0.92,0.09 0.92,0.6 0,0.51 -0.63,0.49 -1.33,0.62 -0.7,0.13 -1.69,0.27 -1.69,1.37 a 1.34,1.34 0 0 0 1.51,1.29 2.22,2.22 0 0 0 1.52,-0.54 0.66,0.66 0 0 0 0.75,0.54 2.6,2.6 0 0 0 0.62,-0.11 v -0.67 h -0.24 c -0.18,0 -0.23,-0.09 -0.23,-0.33 z m -1,1.74 c 0,0.61 -0.67,0.83 -1.1,0.83 -0.43,0 -0.89,-0.12 -0.89,-0.56 0,-0.44 0.37,-0.67 0.79,-0.73 a 3.48,3.48 0 0 0 1.2,-0.24 z m -7.47,1.48 h 1 v -2.6 a 1.08,1.08 0 0 1 1.07,-1.16 c 0.57,0 0.85,0.3 0.86,1 v 2.77 h 1 v -3 a 1.39,1.39 0 0 0 -1.58,-1.49 1.57,1.57 0 0 0 -1.37,0.79 v 0 -0.69 h -0.92 z m -2.88,0.12 a 2.33,2.33 0 1 0 -2.23,-2.33 2.12,2.12 0 0 0 2.23,2.33 m 0,-0.77 c -0.87,0 -1.26,-0.79 -1.26,-1.56 0,-0.77 0.39,-1.55 1.26,-1.55 0.87,0 1.25,0.79 1.25,1.55 0,0.76 -0.38,1.56 -1.25,1.56 m -3.9,-4.52 h 1 v -0.92 h -1 z m 0,5.17 h 1 v -4.38 h -1 z m -3.16,-3.68 h 0.74 v 2.6 c 0,0.73 0.2,1.12 1.22,1.12 0.21,0 0.41,0 0.63,0 v -0.75 a 1.43,1.43 0 0 1 -0.41,0 c -0.44,0 -0.47,-0.21 -0.47,-0.61 v -2.33 h 0.88 v -0.73 h -0.88 v -1.32 h -1 v 1.32 h -0.74 z m -0.45,0.43 c 0,-0.93 -0.9,-1.28 -1.76,-1.28 -0.86,0 -1.94,0.34 -2,1.47 h 1 c 0.05,-0.48 0.43,-0.7 1,-0.7 0.39,0 0.91,0.09 0.91,0.6 0,0.51 -0.62,0.49 -1.32,0.62 -0.7,0.13 -1.7,0.27 -1.7,1.37 a 1.35,1.35 0 0 0 1.51,1.29 2.26,2.26 0 0 0 1.53,-0.54 c 0.07,0.4 0.36,0.54 0.75,0.54 a 2.44,2.44 0 0 0 0.61,-0.11 v -0.67 H 9.92 c -0.18,0 -0.23,-0.09 -0.23,-0.33 z m -1,1.77 c 0,0.61 -0.66,0.83 -1.09,0.83 -0.43,0 -0.9,-0.12 -0.9,-0.56 0,-0.44 0.38,-0.67 0.8,-0.73 a 3.47,3.47 0 0 0 1.19,-0.27 z m -8.63,1.48 h 1 v -4.48 0 l 2.77,4.48 H 4.9 v -6.06 h -1 v 4.49 0 l -2.71,-4.49 H 0.07 Z"
     id="path181" />
  <path
     class="cls-1"
     d="M 54.13,0.97855897 H 15.49 A 3.5,3.5 0 0 0 12,4.478559 v 31 a 3.49,3.49 0 0 0 3.49,3.47 h 38.6 l 10.53,-19 z M 31.62,28.498559 h -3.13 l -7.74,-12.48 h -0.07 v 12.48 h -2.83 v -17 h 3.14 l 7.75,12.51 v 0 -12.49 h 2.83 z m 5.89,0 h -3 v -17 h 3 z m 13.67,0 v -7.66 h -7.69 v 7.66 h -3 v -17 h 3 v 6.75 h 7.72 v -6.73 h 3 v 17 z"
     id="path183" />
  <path
     class="cls-2"
     d="m 56.73,38.948559 10.52,-19 L 56.76,0.94855897 h 2.63 A 4.89,4.89 0 0 1 63.26,3.238559 l 9.23,16.71 -9.26,16.71 a 4.89,4.89 0 0 1 -3.88,2.29 z"
     id="path185" />
  <path
     class="cls-2"
     d="m 96.49,60.388559 a 0.38,0.38 0 0 1 -0.37,-0.37 V 0.31855897 a 0.38,0.38 0 0 1 0.75,0 V 60.018559 a 0.38,0.38 0 0 1 -0.38,0.37 z"
     id="path187" />
</svg>
